<svg xmlns="http://www.w3.org/2000/svg" viewBox="0 0 1180 1180">
  <defs>
    <style>.cls-1{fill:#900;}.cls-2{fill:#fff;}</style>
  </defs>
  <g id="Camada_2" data-name="Camada 2">
    <g id="Camada_1-2" data-name="Camada 1">
      <rect class="cls-1" width="1180" height="1180"/>
      <path class="cls-2" d="M584.61,975.83q-8,0-16-.31c-57.77-2.2-114.67-16.17-164.56-40.4-52.49-25.5-96.26-62.07-126.57-105.77-35.67-51.41-55.75-116.92-56.53-184.44-.82-69.85,18.17-136.79,54.89-193.57h0c36.41-56.28,88-98.8,153.34-126.38a407.43,407.43,0,0,1,116.9-29.79,417,417,0,0,1,119.18,6.3c75.13,14.92,137,48.9,183.83,101,53.67,59.65,84.18,139.9,85.91,226A368.15,368.15,0,0,1,917.64,748.6c-12.73,39.65-31.8,75.28-56.69,105.9-34.05,41.88-78.35,73.75-131.68,94.74C684.86,966.72,635.15,975.83,584.61,975.83Zm-.8-660.43c-15.09,0-27.33.85-35.59,1.66-51.18,5.05-178.36,29.4-253.93,146.23h0C225,570.46,225.48,715.83,295.53,816.81,351.89,898,454.28,949.15,569.43,953.54c112.6,4.29,212.62-36.87,274.45-112.92,96.8-119.06,91.79-309-11.16-423.47C753.84,329.47,645.25,315.4,583.81,315.4Z"/>
      <path class="cls-2" d="M324.23,413.75C308.57,406.58,288,393,279.07,369c-13.35-35.81,8.31-69.08,24.13-93.37,14.25-21.88,43.9-67.43,90.41-71.2,50-4.06,101.05,40.14,121.45,105.08l-21,6.59c-17.07-54.34-59.5-92.93-98.69-89.74-35.74,2.9-60.46,40.87-73.75,61.28-14,21.5-31.42,48.26-21.95,73.68,6.32,16.95,21.82,27,33.7,32.42Z"/>
      <path class="cls-2" d="M924.72,631.91l-2-21.91c56.89-5,94.7-44.24,94.33-77.68-.21-18.55-12-33.65-21.8-43a115.65,115.65,0,0,0-47.87-27.11c-27.18-7.45-51.63-1.28-67.35,5.21L871.69,447c18.89-7.8,48.37-15.18,81.55-6.09,41.25,11.29,85.36,47.07,85.85,91.12.26,22.85-11.47,46.69-32.19,65.4C985.41,616.89,956.22,629.12,924.72,631.91Z"/>
      <path class="cls-2" d="M729,764.93a91.71,91.71,0,0,1-20.13-2.22c-28.45-6.41-52.61-27.62-69.85-61.33-13-25.43-21.63-57.1-23.67-86.89-2.06-30.11,2.59-64.87,12.44-93,12.17-34.71,30.35-55.35,52.59-59.68h0c24.89-4.85,53.05,11.93,79.3,47.27,22,29.66,40.25,68.92,48.71,105,6.33,26.95,21.14,90.08-17.5,127.1C775,756.43,752.13,764.93,729,764.93ZM684.6,483.42c-30.69,6-51,75.78-47.29,129.57,3.1,45.34,26,116.91,76.4,128.26,18.28,4.12,44.52.79,62-15.93C805.26,697,792.92,644.41,787,619.14c-7.71-32.82-24.93-70-45-96.92-20.61-27.75-41.55-41.89-57.43-38.8Z"/>
      <path class="cls-2" d="M411,732.56c-26.16,0-52.67-11.5-69.45-31-24.8-28.82-20.47-65.44-17-94.87C331.77,545.47,360,495.14,404.13,465c19.44-13.3,55.64-38.06,87-24,21,9.4,33.83,34.17,37.2,71.63,2.39,26.55,0,59.34-6.49,87.73-22.17,97.48-63.95,124.92-95.09,130.77A85.29,85.29,0,0,1,411,732.56ZM470.89,458.8c-18.76,0-41.22,15.36-54.34,24.34-52.31,35.78-66.42,94.38-70.17,126.13-3.28,27.76-6.68,56.45,11.81,77.94h0c15,17.43,41.54,26.6,64.51,22.28,24.68-4.63,58.19-28.18,77.71-114,10.5-46.19,12-120.86-18.25-134.4A27.36,27.36,0,0,0,470.89,458.8Z"/>
      <path class="cls-2" d="M718.7,947.58,697.19,943a207.35,207.35,0,0,0,4.55-40.83c.79-75.54-25.37-132.46-73.69-160.27-44.49-25.6-102.33-25.06-147.34,1.39-17.77,10.44-75.39,49.49-70.92,113.59,2.33,33.58,21,58.38,36.27,73.27l-15.37,15.75c-18-17.56-40-47-42.85-87.49-2.38-34.13,9.21-66.08,34.44-94.95a197.5,197.5,0,0,1,47.28-39.14c51.72-30.39,118.23-31,169.46-1.49,55.52,32,85.6,95.73,84.71,179.57A228.57,228.57,0,0,1,718.7,947.58Z"/>
      <ellipse class="cls-2" cx="561.78" cy="736.29" rx="34.63" ry="38.73" transform="translate(-265.12 1153.38) rotate(-79.42)"/>
    </g>
  </g>
</svg>
