<svg xmlns="http://www.w3.org/2000/svg" viewBox="0 0 1030.19 193.79"><defs><style>.cls-1{fill:#fff;}.cls-2{fill:#9a0000;}</style></defs><g id="Camada_2" data-name="Camada 2"><g id="Camada_1-2" data-name="Camada 1"><polygon class="cls-1" points="0 0 123.62 43.99 123.62 193.79 81.3 74.77 0 0"/><polygon class="cls-1" points="140.44 135.45 140.44 193.79 182.76 74.76 264.06 0 177.43 30.83 140.44 135.45"/><polygon class="cls-2" points="140.44 43.99 140.44 135.45 177.43 30.83 140.44 43.99"/><path class="cls-1" d="M338.14,36.07l41,58.17,40.95-58.17h39.33l-64,90.75v62.83H362.81V126.82l-64-90.75Z"/><path class="cls-1" d="M504.18,167.26c19.32,0,30.49-7.21,30.49-19.78h31.18c0,29.55-22.57,46.31-61.67,46.31-42.35,0-66.55-21.64-66.55-59.57V115.6c0-37.93,24.2-59.57,66.55-59.57,40.73,0,64.23,21.64,64.23,59.57v18.62h-99.6C468.81,155.16,481.61,167.26,504.18,167.26Zm32.35-59.57c-2.79-16.06-14.2-25.13-32.35-25.13-19.54,0-31.88,9.07-34.67,25.13Z"/><path class="cls-1" d="M641.24,167.26c19.32,0,30.49-7.21,30.49-19.78h31.18c0,29.55-22.57,46.31-61.67,46.31-42.35,0-66.55-21.64-66.55-59.57V115.6c0-37.93,24.2-59.57,66.55-59.57,40.72,0,64.23,21.64,64.23,59.57v18.62h-99.6C605.87,155.16,618.67,167.26,641.24,167.26Zm32.35-59.57c-2.79-16.06-14.2-25.13-32.35-25.13-19.55,0-31.88,9.07-34.67,25.13Z"/><path class="cls-1" d="M710.51,174.73,779.42,74.5H715.48c-5,0-8.86-3.45-8.86-8.2V60.46h93.53v6.27c-.21,3.45-2.37,6.69-3.88,9.07L727.36,176H791.3c5,0,8.85,3.45,8.85,8.2v5.84H706.62v-5.84C706.62,179.91,709,177.11,710.51,174.73Z"/><path class="cls-1" d="M915.5,190.07h-6.91c-4.76,0-8.21-3.89-8.21-8.86v-3c-7.56,9.72-19.66,15.33-36.51,15.33-31.75,0-51.84-19.65-51.84-51V60.46h7.13c4.54,0,8,3.89,8,8.86v73.23c0,22.68,14.26,36.93,36.72,36.93s36.51-14.25,36.51-36.93V69.32c0-5,3.45-8.86,8-8.86h7.13Z"/><path class="cls-1" d="M977.92,57c31.75,0,48.82,18.79,52.27,41.47h-6c-8.21,0-9.94-7.13-15.77-14.47-4.75-6.05-14.69-13-30.46-13s-28.73,5.18-28.73,20.3c0,33.27,81,15.34,81,65.24,0,22.89-19.65,36.93-48.6,36.93-31.75,0-50.76-18.79-54.21-41.47h6c8.21,0,9.94,7.13,15.77,14.47,4.75,6,16.63,13,32.4,13,19.66,0,33.48-8.64,33.48-22.89,0-36.08-81-18.58-81-65.24C934.07,71.05,950.27,57,977.92,57Z"/></g></g></svg>